<?xml version="1.0" encoding="utf-8"?>
<!-- Generator: Adobe Illustrator 26.0.2, SVG Export Plug-In . SVG Version: 6.00 Build 0)  -->
<svg version="1.1" id="Layer_1" xmlns="http://www.w3.org/2000/svg" xmlns:xlink="http://www.w3.org/1999/xlink" x="0px" y="0px"
	 viewBox="0 0 1307.6 500" style="enable-background:new 0 0 1307.6 500;" xml:space="preserve">
<style type="text/css">
	.st0{fill-rule:evenodd;clip-rule:evenodd;fill:url(#SVGID_1_);}
	.st1{fill-rule:evenodd;clip-rule:evenodd;fill:#3EC7F4;}
	.st2{fill-rule:evenodd;clip-rule:evenodd;fill:url(#SVGID_00000152248261327189980730000013630682571151788180_);}
	.st3{fill:#002846;}
	.st4{fill-rule:evenodd;clip-rule:evenodd;fill:url(#SVGID_00000080200376491245464860000003990830029849190072_);}
</style>
<g>
	<g>
		<g>
			<g id="Icon_00000176743083098466889980000001429425562817722790_">
				<linearGradient id="SVGID_1_" gradientUnits="userSpaceOnUse" x1="466.6316" y1="139.6296" x2="379.4244" y2="322.7646">
					<stop  offset="0.3764" style="stop-color:#3EC7F4"/>
					<stop  offset="1" style="stop-color:#389BCA"/>
				</linearGradient>
				<polygon class="st0" points="432,125 432,375 415.8,384.4 361.8,380.4 365.6,356 382.4,346.3 382.4,153.7 				"/>
			</g>
			<polygon class="st1" points="216,0 0,125 0,375 216,500 220.9,470.3 216,442.6 49.6,346.3 49.6,153.7 216,57.4 382.4,153.7 
				411.8,151.8 432,125 			"/>
			
				<linearGradient id="SVGID_00000131356921525155542350000001703230484506827917_" gradientUnits="userSpaceOnUse" x1="212.3682" y1="479.1111" x2="305.4791" y2="416.3397">
				<stop  offset="0.2259" style="stop-color:#3EC7F4"/>
				<stop  offset="1" style="stop-color:#389BCA"/>
			</linearGradient>
			
				<polygon style="fill-rule:evenodd;clip-rule:evenodd;fill:url(#SVGID_00000131356921525155542350000001703230484506827917_);" points="
				216,442.6 278.2,406.6 327.8,435.3 216,500 			"/>
			<g>
				<path class="st3" d="M192.8,220.8H264c16.9,0,30.7,13.9,30.7,31c0,8.9-3.8,17-9.9,22.7l52.6,30.6c10.6-15.1,16.9-33.5,16.9-53.3
					c0-50.8-41.2-92.3-91.5-92.3H87.4L192.8,220.8z"/>
				
					<linearGradient id="SVGID_00000031924183486019439120000001159121890930092167_" gradientUnits="userSpaceOnUse" x1="222.5299" y1="262.4235" x2="326.6725" y2="422.044">
					<stop  offset="0" style="stop-color:#002846"/>
					<stop  offset="0.5314" style="stop-color:#002643"/>
					<stop  offset="0.935" style="stop-color:#002039"/>
					<stop  offset="1" style="stop-color:#001E37"/>
				</linearGradient>
				
					<polygon style="fill-rule:evenodd;clip-rule:evenodd;fill:url(#SVGID_00000031924183486019439120000001159121890930092167_);" points="
					242.9,285 123.5,285 355.5,419.3 415.8,384.4 				"/>
			</g>
		</g>
	</g>
	<g>
		<path class="st3" d="M580.1,198.4V216c3.4-9.5,5.9-13.4,11.2-17.1c5-3.6,12-5.6,18.7-5.6h4.2V237c-3.1-0.3-6.2-0.6-7.8-0.6
			c-9.5,0-17.6,3.9-22.1,10.4c-3.4,4.5-4.2,9.2-4.2,20.1v61h-42.5V198.4H580.1z"/>
		<path class="st3" d="M738.2,198.4h42.5V328h-42.5v-14.5c-11.8,13.4-25.5,19.6-43.9,19.6c-36.9,0-63.5-28.3-63.5-68
			c0-41.4,28.3-71.6,67.2-71.6c16.5,0,27.7,5.3,40.3,19V198.4z M676.1,264.2c0,19.9,13.4,35.3,30.8,35.3c17.6,0,31.9-16.2,31.9-35.8
			c0-20.7-13.2-35-31.6-35C688.9,228.6,676.1,243.5,676.1,264.2z"/>
		<path class="st3" d="M846.8,198.4v12.3c10.1-12,22.4-17.3,40.3-17.3c12.3,0,24.3,3.1,34.7,9c21.8,12.6,33.3,33.9,33.3,61.8
			c0,42.2-25.7,68.8-66.6,68.8c-17.6,0-31.3-5.3-41.7-16.2V385h-42.5V198.4H846.8z M846.8,264.7c0,21,12,34.7,30.5,34.7
			c18.7,0,32.5-14.5,32.5-34.4c0-21-13.2-36.4-31.1-36.4C859.9,228.6,846.8,243.5,846.8,264.7z"/>
		<path class="st3" d="M1016,198.4v12.3c10.1-12,22.4-17.3,40.3-17.3c12.3,0,24.3,3.1,34.7,9c21.8,12.6,33.3,33.9,33.3,61.8
			c0,42.2-25.7,68.8-66.6,68.8c-17.6,0-31.3-5.3-41.7-16.2V385h-42.5V198.4H1016z M1016,264.7c0,21,12,34.7,30.5,34.7
			c18.7,0,32.5-14.5,32.5-34.4c0-21-13.2-36.4-31.1-36.4C1029.2,228.6,1016,243.5,1016,264.7z"/>
		<path class="st3" d="M1192.6,284.3c0,6.2,2.2,7.8,10.4,8.4h4.5V328h-32.7c-18.2-0.6-24.9-8.1-24.6-26.9v-68.3h-13.2v-35.3h13.2
			v-31.9h42.5v31.9h14.8v35.3h-14.8V284.3z"/>
		<path class="st3" d="M1273.5,198.4V216c3.4-9.5,5.9-13.4,11.2-17.1c5-3.6,12-5.6,18.7-5.6h4.2V237c-3.1-0.3-6.2-0.6-7.8-0.6
			c-9.5,0-17.6,3.9-22.1,10.4c-3.4,4.5-4.2,9.2-4.2,20.1v61h-42.5V198.4H1273.5z"/>
	</g>
</g>
</svg>
